<svg xmlns="http://www.w3.org/2000/svg" viewBox="0 0 500 500"><g id="freepik--background-complete--inject-24"><rect y="382.4" width="500" height="0.25" style="fill:#ebebeb"></rect><rect x="416.78" y="398.49" width="33.12" height="0.25" style="fill:#ebebeb"></rect><rect x="267.86" y="390.76" width="27.36" height="0.25" style="fill:#ebebeb"></rect><rect x="396.59" y="389.21" width="19.19" height="0.25" style="fill:#ebebeb"></rect><rect x="52.46" y="390.89" width="17.15" height="0.25" style="fill:#ebebeb"></rect><rect x="78.51" y="390.89" width="32.38" height="0.25" style="fill:#ebebeb"></rect><rect x="164.78" y="395.11" width="60.37" height="0.25" style="fill:#ebebeb"></rect><path d="M237,337.8H43.91a5.71,5.71,0,0,1-5.7-5.71V60.66A5.71,5.71,0,0,1,43.91,55H237a5.71,5.71,0,0,1,5.71,5.71V332.09A5.71,5.71,0,0,1,237,337.8ZM43.91,55.2a5.46,5.46,0,0,0-5.45,5.46V332.09a5.46,5.46,0,0,0,5.45,5.46H237a5.47,5.47,0,0,0,5.46-5.46V60.66A5.47,5.47,0,0,0,237,55.2Z" style="fill:#ebebeb"></path><path d="M453.31,337.8H260.21a5.72,5.72,0,0,1-5.71-5.71V60.66A5.72,5.72,0,0,1,260.21,55h193.1A5.71,5.71,0,0,1,459,60.66V332.09A5.71,5.71,0,0,1,453.31,337.8ZM260.21,55.2a5.47,5.47,0,0,0-5.46,5.46V332.09a5.47,5.47,0,0,0,5.46,5.46h193.1a5.47,5.47,0,0,0,5.46-5.46V60.66a5.47,5.47,0,0,0-5.46-5.46Z" style="fill:#ebebeb"></path><rect x="71.28" y="94.56" width="156.18" height="281.91" transform="translate(298.73 471.02) rotate(180)" style="fill:#f5f5f5"></rect><path d="M214.2,368.53H84.53a4.73,4.73,0,0,1-4.71-4.72V107.21a4.72,4.72,0,0,1,4.71-4.71H214.2a4.71,4.71,0,0,1,4.71,4.71v256.6A4.72,4.72,0,0,1,214.2,368.53ZM84.53,103.11a4.11,4.11,0,0,0-4.1,4.1v256.6a4.11,4.11,0,0,0,4.1,4.11H214.2a4.11,4.11,0,0,0,4.1-4.11V107.21a4.11,4.11,0,0,0-4.1-4.1Z" style="fill:#e0e0e0"></path><polygon points="71.28 382.4 88.27 382.4 93.05 376.47 71.28 376.47 71.28 382.4" style="fill:#f5f5f5"></polygon><polygon points="212.67 382.4 195.68 382.4 190.9 376.47 212.67 376.47 212.67 382.4" style="fill:#e0e0e0"></polygon><polygon points="227.46 382.4 210.46 382.4 205.69 376.47 227.46 376.47 227.46 382.4" style="fill:#f5f5f5"></polygon><rect x="56.11" y="94.56" width="15.17" height="287.84" style="fill:#e0e0e0"></rect><path d="M149.37,368.53a.31.31,0,0,1-.31-.31V102.8a.31.31,0,0,1,.31-.3.3.3,0,0,1,.3.3V368.22A.3.3,0,0,1,149.37,368.53Z" style="fill:#e0e0e0"></path><path d="M140.65,252.14c-2.22,0-3-9.94-3-16.63s.81-16.62,3-16.62,3,9.94,3,16.62S142.87,252.14,140.65,252.14Zm0-32.64c-1,0-2.42,6.09-2.42,16s1.41,16,2.42,16,2.42-6.09,2.42-16S141.66,219.5,140.65,219.5Z" style="fill:#e0e0e0"></path><path d="M158.08,252.14c-2.23,0-3-9.94-3-16.63s.8-16.62,3-16.62,3,9.94,3,16.62S160.3,252.14,158.08,252.14Zm0-32.64c-1,0-2.42,6.09-2.42,16s1.41,16,2.42,16,2.41-6.09,2.41-16S159.09,219.5,158.08,219.5Z" style="fill:#e0e0e0"></path><rect x="386.91" y="260.4" width="42.07" height="122" style="fill:#e6e6e6"></rect><polygon points="420.99 382.4 428.98 382.4 428.98 373.21 412.61 373.21 420.99 382.4" style="fill:#f0f0f0"></polygon><rect x="245.71" y="260.4" width="26.04" height="122" style="fill:#e6e6e6"></rect><rect x="241.19" y="252.03" width="27.94" height="8.37" style="fill:#e0e0e0"></rect><rect x="264.77" y="260.4" width="164.2" height="119.58" style="fill:#f0f0f0"></rect><rect x="261.84" y="252.03" width="171.65" height="8.37" style="fill:#f5f5f5"></rect><rect x="364.82" y="300.11" width="42.68" height="73.22" rx="3.05" transform="translate(49.44 722.89) rotate(-90)" style="fill:#e6e6e6"></rect><rect x="286.24" y="300.11" width="42.68" height="73.22" rx="3.05" transform="translate(-29.14 644.3) rotate(-90)" style="fill:#e6e6e6"></rect><path d="M422.78,367.45h0a3.06,3.06,0,0,1-3,3.05H274a3,3,0,0,1-3-3.05h0a3,3,0,0,1,3-3.05H419.73A3,3,0,0,1,422.78,367.45Z" style="fill:#e6e6e6"></path><path d="M314.82,320.29H300.34a26.58,26.58,0,0,1-16.64-5.52h47.76A26.58,26.58,0,0,1,314.82,320.29Z" style="fill:#f0f0f0"></path><path d="M394.15,320.29H379.66A26.55,26.55,0,0,1,363,314.77h47.75A26.55,26.55,0,0,1,394.15,320.29Z" style="fill:#f0f0f0"></path><rect x="364.82" y="251.7" width="42.68" height="73.22" rx="3.05" transform="translate(97.86 674.47) rotate(-90)" style="fill:#e6e6e6"></rect><rect x="286.24" y="251.7" width="42.68" height="73.22" rx="3.05" transform="translate(19.27 595.89) rotate(-90)" style="fill:#e6e6e6"></rect><path d="M314.82,271.87H300.34a26.58,26.58,0,0,1-16.64-5.52h47.76A26.58,26.58,0,0,1,314.82,271.87Z" style="fill:#f0f0f0"></path><path d="M394.15,271.87H379.66A26.55,26.55,0,0,1,363,266.35h47.75A26.55,26.55,0,0,1,394.15,271.87Z" style="fill:#f0f0f0"></path><polygon points="272.76 382.4 264.77 382.4 264.77 373.21 281.14 373.21 272.76 382.4" style="fill:#f0f0f0"></polygon><path d="M342.83,226c0,8.79,15.21,15.93,34,15.93s34-7.14,34-15.93Z" style="fill:#f0f0f0"></path><path d="M342.83,236.1c0,8.8,15.21,15.93,34,15.93s34-7.13,34-15.93Z" style="fill:#e0e0e0"></path><rect x="276.6" y="77.04" width="142.01" height="132.96" style="fill:#e6e6e6"></rect><rect x="280.5" y="77.04" width="142.01" height="132.96" style="fill:#f5f5f5"></rect><rect x="291.55" y="79.5" width="119.9" height="128.02" transform="translate(495.02 -207.99) rotate(90)" style="fill:#fff"></rect><rect x="354.09" y="142.04" width="119.9" height="2.94" transform="translate(557.56 -270.53) rotate(90)" style="fill:#e6e6e6"></rect><rect x="283.39" y="176.64" width="136.22" height="8.76" style="fill:#f5f5f5"></rect><rect x="283.39" y="153.54" width="136.22" height="8.76" style="fill:#f5f5f5"></rect></g><g id="freepik--Shadow--inject-24"><ellipse id="freepik--path--inject-24" cx="250" cy="416.24" rx="193.89" ry="11.32" style="fill:#f5f5f5"></ellipse></g><g id="freepik--Break--inject-24"><path d="M287.86,267.71,235.27,378.46,236.71,393l65.64-62.34-11.44-.74,36.52-33.2a106,106,0,0,1-10.22-10.56c-9.29-11.15-14.44-23.95-18.38-37.44l2.68-.69a115.5,115.5,0,0,0-4.59-25.36l-20.18,47.63Z" style="fill:#263238"></path><path d="M377,320.73l-131.9,63.88c-2.36-.45-4.68-.94-6.93-1.46v-.28L311,325l-11.57-1.82,40.37-30.69q4.05,4.46,8.42,8.64c3.27,3.16,6.65,6.24,10,9.28,3.06,2.75,5.46,5.55,9.78,6.69A28.65,28.65,0,0,1,377,320.73Z" style="fill:#263238"></path><path d="M376,326.81a13.38,13.38,0,0,0-2.76-2.46L244,385.77c14.59,2.89,30.8,4.52,45.55,3.57,46.09-5.56,70.27-22.39,85.4-47.93l4.79-2.91a3.84,3.84,0,0,0,1.11-5.91Z" style="fill:#263238"></path><path d="M151.91,322.73l-.38,10.83-20-14.5a174.62,174.62,0,0,0,11.19,27.1c13.43,25.17,37.35,50.84,81.93,55.42,5.31.55,13,.06,21.94-1.37l-1.11-3.62Z" style="fill:#263238"></path><path d="M183.83,136.16l-6-46.86a54.82,54.82,0,0,0-11.85,16.11c-17.93,36.41-11.72,56.78,13.13,71.71l.93.54-10.49-49.38Z" style="fill:#FF725E"></path><polygon points="296.2 206.79 331.44 119.57 331.44 141.89 296.2 206.79" style="fill:#263238"></polygon><polygon points="341.63 271.77 387.4 212.13 382.63 229.32 341.63 271.77" style="fill:#FF725E"></polygon><polygon points="139.66 208.05 119.32 162.76 117.22 174.11 139.66 208.05" style="fill:#FF725E"></polygon><path d="M161.43,321.67l79.79,87.44L239,392.05,179.25,293.2l.65,8.73-26.24-34.24,16.46,2.71L141.5,219.58A33.32,33.32,0,0,0,137,237c.54,26.06,1.44,54,5,77.86l17.25,17.41Z" style="fill:#FF725E"></path><path d="M196.13,213.14l21.37,136.3,13.24-195.9-9.48,6.09L219,80.72c-12.94-.27-26.65,3.6-37.45,13.23l5.5,47-14.25-8.25,9.94,49.6a107.45,107.45,0,0,0,17.77,8.69c-.38,1-.75,1.93-1.12,2.86a128.67,128.67,0,0,0-14.47-.66l4.74,23.7Z" style="fill:#263238"></path><path d="M156.13,262.64l23,36.23.16-8.75,50.42,103.33-1.48-43L194.46,220.55l-6.13,4.15L183.17,197c-2.34.19-4.73.43-7.2.75a39.53,39.53,0,0,0-27.5,16l23.82,53Z" style="fill:#263238"></path><path d="M265.06,167.52l-10,30.6c12.25-.48,22.76-2.17,29.47-4.23-8.79-5.12-11.35-19.64-10.78-34.56l-8.09,13.34Z" style="fill:#FF725E"></path><path d="M266.6,209.58l-.07-.05c-.48-.3-1-.6-1.47-.88-8.73-4.89-16.88-9.3-25.2-12.94a14,14,0,0,1-1.68-4c4.9.74,9.67,1.23,14.23,1.52l13.19-31.56.08,5.56,9.49-13.37a138.89,138.89,0,0,1,6.43-26.66c7.28-20.45-8-34.49-15.8-32.61-4.83-12.1-21.35-20.73-39.48-21.27l-.62,72.48,9.56-6L221.49,342l7.33,50.81,47.65-113.07-11,3.05,18.07-48.51C280.12,224.73,274.81,214.88,266.6,209.58Z" style="fill:#263238"></path></g><g id="freepik--Character--inject-24"><path d="M221.89,246.18c-8.72,17.86-6.11,28.15,5.33,35.93,14.88,10.12,35.89,10.39,44.45,8.12-6.34-5.12-4.34-22.59-1.34-32.74s-4.21-16.82-7.71-15.82C257.89,230,231.87,225.72,221.89,246.18Z" style="fill:#263238"></path><path d="M221.89,246.18c-8.72,17.86-6.11,28.15,5.33,35.93,14.88,10.12,35.89,10.39,44.45,8.12-6.34-5.12-4.34-22.59-1.34-32.74s-4.21-16.82-7.71-15.82C257.89,230,231.87,225.72,221.89,246.18Z" style="fill:#fff;opacity:0.6000000000000001"></path><path d="M269.64,307.07l.45,2,.5,2.12,1.08,4.25c.76,2.83,1.54,5.65,2.43,8.4s1.82,5.47,2.87,8.07a62.79,62.79,0,0,0,3.46,7.43,37.8,37.8,0,0,0,2,3.27c.34.53.7,1,1.05,1.46l1.18,1.47a58.26,58.26,0,0,0,5.68,5.8c2.1,1.87,4.35,3.7,6.69,5.49.58.44,1.17.89,1.77,1.32s1.19.88,1.79,1.32l3.57,2.56.26.18a4.28,4.28,0,0,1-3.45,7.66c-1.75-.4-3.28-.83-4.87-1.34s-3.13-1.07-4.67-1.7a66.24,66.24,0,0,1-9-4.46,54,54,0,0,1-8.54-6.18c-.67-.64-1.34-1.26-2-1.92s-1.3-1.42-1.88-2.15a52.5,52.5,0,0,1-3.25-4.41,88,88,0,0,1-8.82-18.41c-1.09-3.12-2.08-6.25-2.92-9.42-.43-1.58-.83-3.17-1.19-4.77-.17-.8-.36-1.6-.51-2.42l-.48-2.55a8.55,8.55,0,0,1,16.74-3.47Z" style="fill:#b65b52"></path><path d="M263.84,299.23C273.8,305,276.23,326,276.23,326c-7.55.56-16.81,3.93-24.13,9.08,0,0-3.34-12.76-3.08-19.1C249.28,309.41,258.14,295.94,263.84,299.23Z" style="fill:#fff"></path><path d="M311.82,375.4l3.92-4.06a2.43,2.43,0,0,0-.07-3.45l-2.94-2.82a7.75,7.75,0,0,0-4.17-2l-9.67-1.47L296.2,367c4,4.2,6.86,5.41,6.86,5.41l5.77,3.4A2.44,2.44,0,0,0,311.82,375.4Z" style="fill:#b55b52"></path><path d="M251.05,359.15l-34.6,6.35c-3.15,18.1,4.73,41.36,35.82,41.36,37.86,0,71.66-6.46,66.29-23.86C312.09,362.07,251.05,359.15,251.05,359.15Z" style="fill:#FF725E"></path><path d="M199.9,365.5c-3.15,18.1,4.73,47.36,35.82,47.36,51,0,80.79.81,84.93-16.92S255.82,373,255.82,373s2.32-5.43-1.15-17.47C221,356.12,199.9,365.5,199.9,365.5Z" style="fill:#FF725E"></path><path d="M199.9,365.5c-3.15,18.1,4.73,47.36,35.82,47.36,51,0,80.79.81,84.93-16.92S255.82,373,255.82,373s2.32-5.43-1.15-17.47C221,356.12,199.9,365.5,199.9,365.5Z" style="fill:#fff;opacity:0.1"></path><path d="M263.84,299.23c-12.36-7.25-22.17-12.31-38.61-11.08a19.19,19.19,0,0,0-17.37,16.2c-3.16,19.89-8.49,43.12-8,61.15,35,14.48,55.33,1.55,54.77-10-8.27-21.65,12.48-32.12,13.53-44.49C268.74,304.71,267.93,301.62,263.84,299.23Z" style="fill:#fff"></path><path d="M237.75,269.75c2,7.39-.83,14.31-2.72,19.62a165.63,165.63,0,0,1,13.27,22.69c10.8-8.22,6.8-16,6.8-16-6.6-4.14-4.53-10.74-1.59-15.33Z" style="fill:#b55b52"></path><path d="M248.33,272.05l5.18,8.67a21.77,21.77,0,0,0-1.82,3.34c-3.46.38-8.11-4.29-7.69-7.48C244.2,275.08,247.87,272.64,248.33,272.05Z" style="opacity:0.2"></path><path d="M231.23,258.18c2.8,11,3.74,15.75,10.46,20.41,10.1,7,23,1.17,23.59-10.47.51-10.47-4.15-26.75-15.91-29.12A15.52,15.52,0,0,0,231.23,258.18Z" style="fill:#b55b52"></path><path d="M259.67,242c.22,3.67-10.76,4.58-16.89,4.18-3.95-.26-7.39,2-6.84,5.49.53,3.28,3.5,5.44,5.73,4.59,2.3,7-7,14.45-15.25,9.16S232.79,223.42,259.67,242Z" style="fill:#263238"></path><path d="M259.67,242c.22,3.67-10.76,4.58-16.89,4.18-3.95-.26-7.39,2-6.84,5.49.53,3.28,3.5,5.44,5.73,4.59,2.3,7-7,14.45-15.25,9.16S232.79,223.42,259.67,242Z" style="fill:#fff;opacity:0.6000000000000001"></path><path d="M248.23,257.62a3.59,3.59,0,0,0-2.95.46A7.27,7.27,0,0,0,248.23,257.62Z" style="opacity:0.2"></path><path d="M248.23,258.39a3.2,3.2,0,0,0-2.54,1.13A6.46,6.46,0,0,0,248.23,258.39Z" style="opacity:0.2"></path><path d="M256.27,269.41a3.21,3.21,0,0,0-2.77-.24A6.39,6.39,0,0,0,256.27,269.41Z" style="opacity:0.2"></path><path d="M256.62,246.18s-5.67.35-8.47,2A45,45,0,0,0,256.62,246.18Z" style="opacity:0.2"></path><path d="M249.58,257.78c.18.91.8.72,1.39.61s.94-.11.76-1-.79-1.55-1.38-1.44S249.41,256.87,249.58,257.78Z" style="fill:#263238"></path><path d="M259.85,255.84c.17.9.67.77,1.26.66s1.06-.16.89-1.07-.79-1.55-1.38-1.44S259.68,254.93,259.85,255.84Z" style="fill:#263238"></path><path d="M260.36,254.09l2.07-1S261.63,255,260.36,254.09Z" style="fill:#263238"></path><path d="M257,256.94a24.83,24.83,0,0,0,4.33,5.19c-1,1.34-3.12,1.22-3.12,1.22Z" style="fill:#a02724"></path><path d="M230.16,268.21a8.32,8.32,0,0,0,5.64,2.92c2.91.22,3.8-2.52,2.52-5-1.16-2.21-4.06-5-6.75-4.06S228.44,266.14,230.16,268.21Z" style="fill:#b55b52"></path><path d="M249.45,249.91a.53.53,0,0,0-.44.46c-.34,2.49-3.19,4-3.22,4a.53.53,0,0,0-.23.73.54.54,0,0,0,.73.23c.14-.07,3.39-1.8,3.79-4.84a.53.53,0,0,0-.46-.61Z" style="fill:#263238"></path><path d="M258.16,248.47a.53.53,0,0,0-.47.25.54.54,0,0,0,.18.75,5.38,5.38,0,0,0,4.93.48.54.54,0,1,0-.46-1,4.3,4.3,0,0,1-3.9-.42A.5.5,0,0,0,258.16,248.47Z" style="fill:#263238"></path><path d="M250.1,256l2.06-1S251.36,256.9,250.1,256Z" style="fill:#263238"></path><path d="M227.94,299.88c.71,3.9,1.51,8,2.31,12s1.68,8,2.61,12,1.94,7.87,3,11.68a86.72,86.72,0,0,0,3.84,10.73c.18.4.36.8.55,1.16s.4.81.5,1l.18.34.27.39a8.28,8.28,0,0,0,.63.83,31,31,0,0,0,3.57,3.63,94.5,94.5,0,0,0,9.32,7c6.67,4.5,13.92,8.7,21,12.81l.09.06a4.26,4.26,0,0,1-3.28,7.79c-4.25-1.19-8.28-2.58-12.35-4.14s-8-3.29-12-5.22a87,87,0,0,1-11.76-6.9,42.43,42.43,0,0,1-5.79-4.85c-.48-.5-.95-1-1.42-1.57l-.71-.86-.69-1c-.51-.71-.79-1.21-1.12-1.76s-.64-1.09-.93-1.62a86.61,86.61,0,0,1-5.54-12.74c-1.5-4.2-2.75-8.41-3.89-12.62s-2.14-8.43-3-12.66-1.67-8.42-2.31-12.84a8.55,8.55,0,0,1,16.86-2.8Z" style="fill:#b65b52"></path><path d="M222.24,290.56c10.85,3.76,12.26,28.07,12.26,28.07-5.76-1.27-20.08,7.89-23,13.16,0,0-4.66-15.42-4.4-21.75C207.38,303.44,214.11,287.75,222.24,290.56Z" style="fill:#fff"></path><path d="M282.5,388.23l4.58-3.73a2.55,2.55,0,0,0,.36-3.6l-2.72-3.29a8,8,0,0,0-4.07-2.64l-9.87-2.73-3.47,5.32c3.62,4.86,6.45,6.48,6.45,6.48l5.58,4.24A2.57,2.57,0,0,0,282.5,388.23Z" style="fill:#b55b52"></path><path d="M252.58,266.85a10.29,10.29,0,0,0-1.73.45.32.32,0,0,0-.19.4.32.32,0,0,0,.4.19,8.43,8.43,0,0,1,7.57.77.31.31,0,0,0,.43-.06.31.31,0,0,0-.06-.44A8.71,8.71,0,0,0,252.58,266.85Z" style="fill:#263238"></path></g><g id="freepik--Plant--inject-24"><path d="M117.89,413.33H101.83A6.84,6.84,0,0,1,95,406.5v-5.24a6.87,6.87,0,0,1,5.46-6.69,4,4,0,0,0,3-2.31,7.27,7.27,0,0,0,.39-1.56,2.21,2.21,0,0,0-.66-1.83l-.52-.52a2,2,0,0,1,1.42-3.42h11.52a2,2,0,0,1,1.42,3.42l-.51.51a2.35,2.35,0,0,0-.64,2,7,7,0,0,0,.36,1.37h0a4,4,0,0,0,3,2.31,6.86,6.86,0,0,1,5.46,6.69v5.24A6.83,6.83,0,0,1,117.89,413.33Zm-13.79-27.4a1,1,0,0,0-.71,1.71l.52.52a3.21,3.21,0,0,1,.94,2.68,8,8,0,0,1-.45,1.78,5,5,0,0,1-3.74,2.93A5.85,5.85,0,0,0,96,401.26v5.24a5.84,5.84,0,0,0,5.83,5.83h16.06a5.83,5.83,0,0,0,5.83-5.83v-5.24a5.85,5.85,0,0,0-4.66-5.71,5,5,0,0,1-3.74-2.93,7.53,7.53,0,0,1-.42-1.57,3.38,3.38,0,0,1,.92-2.9l.51-.51a1,1,0,0,0-.71-1.71Z" style="fill:#FF725E"></path><path d="M95.5,401.26v5.24a6.35,6.35,0,0,0,6.33,6.33h16.06a6.35,6.35,0,0,0,6.33-6.33v-5.24s-8,2.13-14.36,0S95.5,401.26,95.5,401.26Z" style="fill:#FF725E;opacity:0.2"></path><path d="M97.17,411.12l-.24-1c6.3-1.61,19.59-1.61,25.86,0l-.24,1C116.39,409.54,103.35,409.54,97.17,411.12Z" style="fill:#FF725E"></path><path d="M109.86,390.13a19.14,19.14,0,0,1-6.48-1.15l.34-.94A17.91,17.91,0,0,0,116,388l.33.94A19.1,19.1,0,0,1,109.86,390.13Z" style="fill:#FF725E"></path><path d="M109.06,404.34l-1,0c.45-16.64-6.84-63.31-13-83.21l1-.3C102.2,340.78,109.52,387.62,109.06,404.34Z" style="fill:#FF725E"></path><path d="M109.79,402.36c-.34-10.45,1.32-38.11,8.6-56.94l.93.36c-7.22,18.68-8.87,46.17-8.53,56.55Z" style="fill:#FF725E"></path><path d="M104.63,348.74c-6.23-7.08-15.82-13.65-30.4-15.67C78.93,341.85,93.75,348.23,104.63,348.74Z" style="fill:#FF725E"></path><path d="M112.65,360.75c6.12-1.33,13-4.77,18.9-12.59C124.94,348.06,116.46,354.61,112.65,360.75Z" style="fill:#fff"></path><path d="M112.65,361.25a.5.5,0,0,1-.43-.76c3.9-6.28,12.57-12.95,19.34-12.83a.52.52,0,0,1,.44.28.53.53,0,0,1-.05.53c-5.13,6.82-11.59,11.12-19.19,12.77ZM130.5,348.7c-5.86.51-13,5.88-16.74,11.27A31.15,31.15,0,0,0,130.5,348.7Z" style="fill:#FF725E"></path><path d="M96.73,331.67c5.19-3.24,10.41-8.68,13.25-17.8C103.86,316,98.21,324.76,96.73,331.67Z" style="fill:#263238"></path></g></svg>